<svg width="312" height="28" viewBox="0 0 312 28" fill="none" xmlns="http://www.w3.org/2000/svg">
<path d="M0.476 27L5.516 1.8H15.236C18.284 1.8 20.636 2.472 22.292 3.816C23.972 5.16 24.812 7.02 24.812 9.396C24.812 11.532 24.32 13.38 23.336 14.94C22.376 16.476 20.996 17.664 19.196 18.504C17.396 19.32 15.26 19.728 12.788 19.728H4.58L7.064 17.496L5.156 27H0.476ZM6.956 18.036L5.3 15.768H12.968C15.224 15.768 16.976 15.264 18.224 14.256C19.472 13.248 20.096 11.772 20.096 9.828C20.096 8.46 19.628 7.44 18.692 6.768C17.78 6.096 16.46 5.76 14.732 5.76H7.424L9.872 3.42L6.956 18.036ZM35.6432 27.252C34.0832 27.252 32.6552 26.916 31.3592 26.244C30.0872 25.572 29.0672 24.612 28.2992 23.364C27.5552 22.092 27.1832 20.568 27.1832 18.792C27.1832 17.16 27.4472 15.66 27.9752 14.292C28.5272 12.924 29.2952 11.736 30.2792 10.728C31.2632 9.72 32.4032 8.94 33.6992 8.388C35.0192 7.836 36.4592 7.56 38.0192 7.56C39.6272 7.56 41.0072 7.848 42.1592 8.424C43.3352 9 44.2232 9.876 44.8232 11.052C45.4232 12.204 45.6992 13.644 45.6512 15.372C45.6032 17.748 45.1712 19.836 44.3552 21.636C43.5392 23.412 42.3992 24.792 40.9352 25.776C39.4712 26.76 37.7072 27.252 35.6432 27.252ZM36.7952 23.4C38.0912 23.4 39.2312 23.1 40.2152 22.5C41.1992 21.876 41.9792 21.024 42.5552 19.944C43.1312 18.864 43.4192 17.616 43.4192 16.2C43.4192 14.712 42.9752 13.536 42.0872 12.672C41.1992 11.808 39.9512 11.376 38.3432 11.376C37.0712 11.376 35.9312 11.688 34.9232 12.312C33.9392 12.912 33.1592 13.752 32.5832 14.832C32.0072 15.912 31.7192 17.16 31.7192 18.576C31.7192 20.064 32.1632 21.24 33.0512 22.104C33.9392 22.968 35.1872 23.4 36.7952 23.4ZM41.5112 27L42.3752 22.608L43.5992 17.496L44.2112 12.348L45.1112 7.776H49.6112L45.7952 27H41.5112ZM60.1429 27.252C58.8949 27.252 57.8149 26.988 56.9029 26.46C56.0149 25.908 55.3669 25.14 54.9589 24.156C54.5749 23.148 54.5149 21.96 54.7789 20.592L58.1989 3.528H62.6989L59.2789 20.556C59.1349 21.444 59.2309 22.164 59.5669 22.716C59.9029 23.268 60.5389 23.544 61.4749 23.544C61.9069 23.544 62.3389 23.484 62.7709 23.364C63.2269 23.22 63.6349 23.028 63.9949 22.788L64.7869 26.1C64.1149 26.532 63.3709 26.832 62.5549 27C61.7389 27.168 60.9349 27.252 60.1429 27.252ZM53.4829 11.52L54.2029 7.92H66.9829L66.2629 11.52H53.4829ZM83.7527 7.56C85.4087 7.56 86.8007 7.896 87.9287 8.568C89.0807 9.24 89.8967 10.236 90.3767 11.556C90.8567 12.852 90.9047 14.448 90.5207 16.344L88.3967 27H83.8967L85.9847 16.452C86.2967 14.892 86.1527 13.68 85.5527 12.816C84.9527 11.928 83.8607 11.484 82.2767 11.484C80.6207 11.484 79.2527 11.94 78.1727 12.852C77.0927 13.764 76.3607 15.156 75.9767 17.028L73.9607 27H69.4607L74.7887 0.287998H79.2887L76.6967 13.248L75.7607 11.52C76.6727 10.152 77.8127 9.156 79.1807 8.532C80.5727 7.884 82.0967 7.56 83.7527 7.56ZM113.774 27.252C112.526 27.252 111.446 26.988 110.534 26.46C109.646 25.908 108.998 25.14 108.59 24.156C108.206 23.148 108.146 21.96 108.41 20.592L111.83 3.528H116.33L112.91 20.556C112.766 21.444 112.862 22.164 113.198 22.716C113.534 23.268 114.17 23.544 115.106 23.544C115.538 23.544 115.97 23.484 116.402 23.364C116.858 23.22 117.266 23.028 117.626 22.788L118.418 26.1C117.746 26.532 117.002 26.832 116.186 27C115.37 27.168 114.566 27.252 113.774 27.252ZM107.114 11.52L107.834 7.92H120.614L119.894 11.52H107.114ZM131.963 27.252C130.091 27.252 128.447 26.904 127.031 26.208C125.639 25.488 124.559 24.504 123.791 23.256C123.023 21.984 122.639 20.496 122.639 18.792C122.639 16.632 123.131 14.712 124.115 13.032C125.099 11.328 126.443 9.996 128.147 9.036C129.875 8.052 131.843 7.56 134.051 7.56C135.947 7.56 137.591 7.908 138.983 8.604C140.399 9.276 141.491 10.248 142.259 11.52C143.027 12.768 143.411 14.256 143.411 15.984C143.411 18.12 142.919 20.04 141.935 21.744C140.951 23.448 139.595 24.792 137.867 25.776C136.163 26.76 134.195 27.252 131.963 27.252ZM132.251 23.4C133.547 23.4 134.687 23.1 135.671 22.5C136.655 21.876 137.435 21.024 138.011 19.944C138.587 18.864 138.875 17.616 138.875 16.2C138.875 14.712 138.431 13.536 137.543 12.672C136.655 11.808 135.407 11.376 133.799 11.376C132.527 11.376 131.387 11.688 130.379 12.312C129.395 12.912 128.615 13.752 128.039 14.832C127.463 15.912 127.175 17.16 127.175 18.576C127.175 20.088 127.619 21.276 128.507 22.14C129.395 22.98 130.643 23.4 132.251 23.4ZM166.808 27.36C165.488 27.36 164.204 27.228 162.956 26.964C161.732 26.7 160.604 26.352 159.572 25.92C158.564 25.464 157.724 24.96 157.052 24.408L159.032 20.736C159.728 21.312 160.52 21.804 161.408 22.212C162.296 22.62 163.232 22.932 164.216 23.148C165.224 23.364 166.232 23.472 167.24 23.472C168.464 23.472 169.532 23.328 170.444 23.04C171.356 22.752 172.052 22.344 172.532 21.816C173.036 21.288 173.288 20.652 173.288 19.908C173.288 19.236 173.06 18.696 172.604 18.288C172.148 17.856 171.536 17.508 170.768 17.244C170.024 16.956 169.196 16.692 168.284 16.452C167.396 16.188 166.496 15.9 165.584 15.588C164.672 15.252 163.844 14.844 163.1 14.364C162.356 13.86 161.744 13.224 161.264 12.456C160.808 11.688 160.58 10.728 160.58 9.576C160.58 7.92 161.036 6.492 161.948 5.292C162.884 4.068 164.168 3.12 165.8 2.448C167.456 1.776 169.376 1.44 171.56 1.44C173.192 1.44 174.74 1.62 176.204 1.98C177.668 2.34 178.928 2.868 179.984 3.564L178.148 7.272C177.212 6.648 176.156 6.168 174.98 5.832C173.804 5.496 172.58 5.328 171.308 5.328C170.06 5.328 168.98 5.484 168.068 5.796C167.156 6.108 166.46 6.54 165.98 7.092C165.5 7.644 165.248 8.292 165.224 9.036C165.224 9.732 165.452 10.296 165.908 10.728C166.364 11.136 166.964 11.484 167.708 11.772C168.452 12.06 169.28 12.336 170.192 12.6C171.104 12.84 172.004 13.116 172.892 13.428C173.804 13.74 174.644 14.136 175.412 14.616C176.18 15.096 176.792 15.708 177.248 16.452C177.704 17.172 177.932 18.084 177.932 19.188C177.932 20.844 177.464 22.284 176.528 23.508C175.616 24.732 174.32 25.68 172.64 26.352C170.984 27.024 169.04 27.36 166.808 27.36ZM190.276 27.252C188.668 27.252 187.288 26.916 186.136 26.244C185.008 25.548 184.204 24.552 183.724 23.256C183.244 21.936 183.196 20.328 183.58 18.432L185.704 7.776H190.204L188.08 18.324C187.792 19.884 187.936 21.108 188.512 21.996C189.112 22.86 190.192 23.292 191.752 23.292C193.36 23.292 194.704 22.836 195.784 21.924C196.888 21.012 197.62 19.62 197.98 17.748L199.996 7.776H204.46L200.644 27H196.36L197.44 21.528L198.16 23.256C197.248 24.624 196.096 25.632 194.704 26.28C193.336 26.928 191.86 27.252 190.276 27.252ZM217.408 27.252C215.512 27.252 213.844 26.904 212.404 26.208C210.988 25.488 209.896 24.504 209.128 23.256C208.36 21.984 207.976 20.496 207.976 18.792C207.976 16.632 208.468 14.712 209.452 13.032C210.436 11.328 211.792 9.996 213.52 9.036C215.248 8.052 217.24 7.56 219.496 7.56C221.44 7.56 223.108 7.944 224.5 8.712C225.916 9.456 227.008 10.572 227.776 12.06L223.924 14.04C223.492 13.128 222.868 12.456 222.052 12.024C221.26 11.592 220.288 11.376 219.136 11.376C217.888 11.376 216.76 11.688 215.752 12.312C214.744 12.912 213.952 13.752 213.376 14.832C212.8 15.912 212.512 17.16 212.512 18.576C212.512 20.064 212.956 21.24 213.844 22.104C214.732 22.968 215.992 23.4 217.624 23.4C218.68 23.4 219.664 23.184 220.576 22.752C221.488 22.32 222.256 21.648 222.88 20.736L226.192 22.968C225.304 24.312 224.08 25.368 222.52 26.136C220.96 26.88 219.256 27.252 217.408 27.252ZM239.305 27.252C237.409 27.252 235.741 26.904 234.301 26.208C232.885 25.488 231.793 24.504 231.025 23.256C230.257 21.984 229.873 20.496 229.873 18.792C229.873 16.632 230.365 14.712 231.349 13.032C232.333 11.328 233.689 9.996 235.417 9.036C237.145 8.052 239.137 7.56 241.393 7.56C243.337 7.56 245.005 7.944 246.397 8.712C247.813 9.456 248.905 10.572 249.673 12.06L245.821 14.04C245.389 13.128 244.765 12.456 243.949 12.024C243.157 11.592 242.185 11.376 241.033 11.376C239.785 11.376 238.657 11.688 237.649 12.312C236.641 12.912 235.849 13.752 235.273 14.832C234.697 15.912 234.409 17.16 234.409 18.576C234.409 20.064 234.853 21.24 235.741 22.104C236.629 22.968 237.889 23.4 239.521 23.4C240.577 23.4 241.561 23.184 242.473 22.752C243.385 22.32 244.153 21.648 244.777 20.736L248.089 22.968C247.201 24.312 245.977 25.368 244.417 26.136C242.857 26.88 241.153 27.252 239.305 27.252ZM261.238 27.252C259.318 27.252 257.65 26.904 256.234 26.208C254.818 25.488 253.714 24.504 252.922 23.256C252.154 21.984 251.77 20.496 251.77 18.792C251.77 16.608 252.25 14.676 253.21 12.996C254.17 11.316 255.478 9.996 257.134 9.036C258.814 8.052 260.722 7.56 262.858 7.56C264.658 7.56 266.218 7.896 267.538 8.568C268.858 9.24 269.878 10.212 270.598 11.484C271.342 12.732 271.714 14.232 271.714 15.984C271.714 16.44 271.69 16.908 271.642 17.388C271.594 17.868 271.522 18.312 271.426 18.72H255.118L255.622 15.732H269.302L267.466 16.74C267.658 15.516 267.574 14.496 267.214 13.68C266.854 12.864 266.278 12.24 265.486 11.808C264.694 11.376 263.746 11.16 262.642 11.16C261.322 11.16 260.17 11.472 259.186 12.096C258.226 12.696 257.482 13.56 256.954 14.688C256.426 15.792 256.162 17.088 256.162 18.576C256.162 20.136 256.606 21.336 257.494 22.176C258.406 23.016 259.81 23.436 261.706 23.436C262.786 23.436 263.818 23.268 264.802 22.932C265.786 22.572 266.602 22.08 267.25 21.456L269.122 24.588C268.114 25.476 266.914 26.148 265.522 26.604C264.154 27.036 262.726 27.252 261.238 27.252ZM281.691 27.252C280.011 27.252 278.439 27.048 276.975 26.64C275.511 26.232 274.383 25.74 273.591 25.164L275.463 21.708C276.255 22.26 277.239 22.716 278.415 23.076C279.615 23.412 280.863 23.58 282.159 23.58C283.647 23.58 284.739 23.376 285.435 22.968C286.155 22.56 286.515 21.996 286.515 21.276C286.515 20.748 286.263 20.352 285.759 20.088C285.255 19.824 284.607 19.608 283.815 19.44C283.047 19.272 282.207 19.092 281.295 18.9C280.407 18.708 279.567 18.444 278.775 18.108C278.007 17.772 277.371 17.28 276.867 16.632C276.363 15.984 276.111 15.12 276.111 14.04C276.111 12.672 276.495 11.508 277.263 10.548C278.031 9.588 279.099 8.856 280.467 8.352C281.859 7.824 283.455 7.56 285.255 7.56C286.551 7.56 287.823 7.704 289.071 7.992C290.319 8.28 291.351 8.688 292.167 9.216L290.511 12.672C289.647 12.12 288.711 11.736 287.703 11.52C286.719 11.304 285.759 11.196 284.823 11.196C283.359 11.196 282.267 11.424 281.547 11.88C280.851 12.312 280.503 12.864 280.503 13.536C280.503 14.064 280.755 14.472 281.259 14.76C281.763 15.048 282.399 15.288 283.167 15.48C283.959 15.648 284.799 15.828 285.687 16.02C286.599 16.188 287.439 16.44 288.207 16.776C288.999 17.112 289.647 17.604 290.151 18.252C290.655 18.876 290.907 19.716 290.907 20.772C290.907 22.164 290.511 23.352 289.719 24.336C288.951 25.296 287.871 26.028 286.479 26.532C285.087 27.012 283.491 27.252 281.691 27.252ZM301.478 27.252C299.798 27.252 298.226 27.048 296.762 26.64C295.298 26.232 294.17 25.74 293.378 25.164L295.25 21.708C296.042 22.26 297.026 22.716 298.202 23.076C299.402 23.412 300.65 23.58 301.946 23.58C303.434 23.58 304.526 23.376 305.222 22.968C305.942 22.56 306.302 21.996 306.302 21.276C306.302 20.748 306.05 20.352 305.546 20.088C305.042 19.824 304.394 19.608 303.602 19.44C302.834 19.272 301.994 19.092 301.082 18.9C300.194 18.708 299.354 18.444 298.562 18.108C297.794 17.772 297.158 17.28 296.654 16.632C296.15 15.984 295.898 15.12 295.898 14.04C295.898 12.672 296.282 11.508 297.05 10.548C297.818 9.588 298.886 8.856 300.254 8.352C301.646 7.824 303.242 7.56 305.042 7.56C306.338 7.56 307.61 7.704 308.858 7.992C310.106 8.28 311.138 8.688 311.954 9.216L310.298 12.672C309.434 12.12 308.498 11.736 307.49 11.52C306.506 11.304 305.546 11.196 304.61 11.196C303.146 11.196 302.054 11.424 301.334 11.88C300.638 12.312 300.29 12.864 300.29 13.536C300.29 14.064 300.542 14.472 301.046 14.76C301.55 15.048 302.186 15.288 302.954 15.48C303.746 15.648 304.586 15.828 305.474 16.02C306.386 16.188 307.226 16.44 307.994 16.776C308.786 17.112 309.434 17.604 309.938 18.252C310.442 18.876 310.694 19.716 310.694 20.772C310.694 22.164 310.298 23.352 309.506 24.336C308.738 25.296 307.658 26.028 306.266 26.532C304.874 27.012 303.278 27.252 301.478 27.252Z" fill="#1E90FF"/>
</svg>
